<?xml version="1.0" encoding="UTF-8" standalone="no"?>
<!-- Created with Inkscape (http://www.inkscape.org/) -->

<svg
   xmlns:dc="http://purl.org/dc/elements/1.1/"
   xmlns:cc="http://creativecommons.org/ns#"
   xmlns:rdf="http://www.w3.org/1999/02/22-rdf-syntax-ns#"
   xmlns:svg="http://www.w3.org/2000/svg"
   xmlns="http://www.w3.org/2000/svg"
   xmlns:sodipodi="http://sodipodi.sourceforge.net/DTD/sodipodi-0.dtd"
   xmlns:inkscape="http://www.inkscape.org/namespaces/inkscape"
   width="300"
   height="300"
   viewBox="0 0 79.374996 79.375002"
   version="1.1"
   id="svg8"
   inkscape:version="0.92.4 (5da689c313, 2019-01-14)"
   sodipodi:docname="thegiwi logo.svg">
  <defs
     id="defs2">
    <clipPath
       id="clipPath831"
       clipPathUnits="userSpaceOnUse">
      <path
         inkscape:connector-curvature="0"
         id="path829"
         d="M 0,200 H 200 V 0 H 0 Z" />
    </clipPath>
    <clipPath
       id="clipPath847"
       clipPathUnits="userSpaceOnUse">
      <path
         inkscape:connector-curvature="0"
         id="path845"
         d="M 0,200 H 200 V 0 H 0 Z" />
    </clipPath>
  </defs>
  <sodipodi:namedview
     id="base"
     pagecolor="#ffffff"
     bordercolor="#666666"
     borderopacity="1.0"
     inkscape:pageopacity="0.0"
     inkscape:pageshadow="2"
     inkscape:zoom="1.979899"
     inkscape:cx="202.47891"
     inkscape:cy="137.63614"
     inkscape:document-units="mm"
     inkscape:current-layer="g823"
     showgrid="false"
     units="px"
     inkscape:window-width="1920"
     inkscape:window-height="1017"
     inkscape:window-x="-8"
     inkscape:window-y="-8"
     inkscape:window-maximized="1" />
  <metadata
     id="metadata5">
    <rdf:RDF>
      <cc:Work
         rdf:about="">
        <dc:format>image/svg+xml</dc:format>
        <dc:type
           rdf:resource="http://purl.org/dc/dcmitype/StillImage" />
        <dc:title></dc:title>
      </cc:Work>
    </rdf:RDF>
  </metadata>
  <g
     inkscape:label="Layer 1"
     inkscape:groupmode="layer"
     id="layer1"
     transform="translate(0,-217.62499)">
    <g
       transform="matrix(0.35277777,0,0,-0.35277777,161.6727,208.88115)"
       inkscape:label="thegiwi-logoAI"
       id="g823">
      <g
         id="g825"
         transform="translate(-445.76656,-239.48455)">
        <g
           clip-path="url(#clipPath831)"
           id="g827">
          <g
             transform="translate(176.5151,195)"
             id="g833">
            <path
               inkscape:connector-curvature="0"
               id="path835"
               style="fill:#ffffff;fill-opacity:1;fill-rule:nonzero;stroke:none"
               d="m 0,0 h -147.447 c -12.027,0 -22.402,-9.426 -22.402,-21.996 v -142.498 c 0,-12.569 10.375,-25.826 22.402,-25.826 H 0 c 12.027,0 19.495,13.257 19.495,25.826 V -21.996 C 19.495,-9.426 12.027,0 0,0" />
          </g>
          <g
             transform="translate(178.0259,197)"
             id="g837">
            <path
               inkscape:connector-curvature="0"
               id="path839"
               style="fill:#000000;fill-opacity:1;fill-rule:nonzero;stroke:none"
               d="m 0,0 h -151.073 c -12.322,0 -22.952,-9.658 -22.952,-22.536 v -146.003 c 0,-12.878 10.63,-26.461 22.952,-26.461 H 0 c 12.322,0 19.975,13.583 19.975,26.461 V -22.536 C 19.975,-9.658 12.322,0 0,0 m 0,-7 c 9.566,0 12.975,-8.025 12.975,-15.536 V -168.539 C 12.975,-177.937 7.761,-188 0,-188 h -151.073 c -7.902,0 -15.952,9.821 -15.952,19.461 v 146.003 c 0,8.567 7.156,15.536 15.952,15.536 L 0,-7" />
          </g>
        </g>
      </g>
      <g
         id="g841"
         transform="translate(-445.76656,-239.48455)">
        <g
           clip-path="url(#clipPath847)"
           id="g843">
          <g
             transform="translate(24.2954,31.291)"
             id="g849">
            <path
               inkscape:connector-curvature="0"
               id="path851"
               style="fill:#000000;fill-opacity:1;fill-rule:nonzero;stroke:none"
               d="m 0,0 c -3.645,3.945 -5.467,9.608 -5.467,16.983 v 47.893 c 0,7.373 1.822,13.036 5.467,16.983 3.643,3.948 8.934,5.922 15.877,5.922 6.94,0 12.233,-1.974 15.877,-5.922 3.644,-3.947 5.467,-9.61 5.467,-16.983 V 57.067 H 23.686 v 8.72 c 0,5.986 -2.473,8.981 -7.418,8.981 -4.946,0 -7.419,-2.995 -7.419,-8.981 V 15.942 c 0,-5.901 2.473,-8.85 7.419,-8.85 4.945,0 7.418,2.949 7.418,8.85 V 33.771 H 16.528 V 46.786 H 37.221 V 16.983 C 37.221,9.608 35.398,3.945 31.754,0 28.11,-3.95 22.817,-5.922 15.877,-5.922 8.934,-5.922 3.643,-3.95 0,0" />
          </g>
          <path
             inkscape:connector-curvature="0"
             id="path853"
             style="fill:#000000;fill-opacity:1;fill-rule:nonzero;stroke:none"
             d="M 70.755,117.771 H 85.071 V 26.67 H 70.755 Z" />
          <path
             inkscape:connector-curvature="0"
             id="path855"
             style="fill:#000000;fill-opacity:1;fill-rule:nonzero;stroke:none"
             d="m 168.23,117.771 h 14.316 V 26.67 H 168.23 Z" />
          <g
             transform="translate(163.4087,118.4004)"
             id="g857">
            <path
               inkscape:connector-curvature="0"
               id="path859"
               style="fill:#000000;fill-opacity:1;fill-rule:nonzero;stroke:none"
               d="M 0,0 H -14.173 L -20.755,-51.758 -30.078,0 h -6.247 -6.247 L -51.896,-51.758 -58.478,0 h -14.171 l 12.885,-91 h 6.233 6.642 L -36.325,-39.691 -25.762,-91 h 6.643 6.232 z" />
          </g>
          <g
             transform="translate(19.6001,164.4004)"
             id="g861">
            <path
               inkscape:connector-curvature="0"
               id="path863"
               style="fill:#000000;fill-opacity:1;fill-rule:nonzero;stroke:none"
               d="m 0,0 h 7 v -39 h 8 V 0 h 7 V 9 H 0 Z" />
          </g>
          <g
             transform="translate(56.9204,162.9043)"
             id="g865">
            <path
               inkscape:connector-curvature="0"
               id="path867"
               style="fill:#000000;fill-opacity:1;fill-rule:nonzero;stroke:none"
               d="m 0,0 c -1.234,0 -2.32,-0.245 -4.32,-1.051 v 11.547 h -8 v -48 h 8 v 24.254 c 0,2.913 1.701,5.109 3.308,5.109 1.92,0 2.692,-2.968 2.692,-4.738 v -24.625 h 8 v 25.305 C 9.68,-4.789 5.76,0 0,0" />
          </g>
          <g
             transform="translate(78.5728,147.4004)"
             id="g869">
            <path
               inkscape:connector-curvature="0"
               id="path871"
               style="fill:#000000;fill-opacity:1;fill-rule:nonzero;stroke:none"
               d="M 0,0 C -0.09,6 1.464,7.221 2.871,7.066 3.862,6.957 5.577,5 5.421,0 Z m 14.027,-3 c 0,13.598 -3.667,18.441 -11.253,18.441 -7.33,0 -11.747,-4.974 -11.747,-18.998 v -0.865 c 0,-12.783 6.632,-18.504 13.073,-18.504 2.921,0 5.112,0.629 7.907,2.321 l 1.313,0.775 -0.894,7.197 c 0,0 -2.912,-1.855 -7.642,-1.484 C 1.601,-13.867 -0.374,-11 0.064,-7 h 13.963 z" />
          </g>
        </g>
      </g>
    </g>
  </g>
</svg>
