<?xml version="1.0" encoding="utf-8"?>
<!-- Generator: Adobe Illustrator 16.0.0, SVG Export Plug-In . SVG Version: 6.00 Build 0)  -->
<!DOCTYPE svg PUBLIC "-//W3C//DTD SVG 1.1//EN" "http://www.w3.org/Graphics/SVG/1.1/DTD/svg11.dtd">
<svg version="1.1" xmlns="http://www.w3.org/2000/svg" xmlns:xlink="http://www.w3.org/1999/xlink" x="0px" y="0px" width="200px"
	 height="200px" viewBox="0 0 200 200" enable-background="new 0 0 200 200" xml:space="preserve">
<g id="Layer_1">
	<path fill="#FFFFFF" d="M174.515,7H27.068C15.042,7,4.667,16.426,4.667,28.996v142.498c0,12.569,10.375,25.826,22.401,25.826
		h147.447c12.027,0,19.495-13.257,19.495-25.826V28.996C194.01,16.426,186.542,7,174.515,7L174.515,7z"/>
	<path d="M176.6,12.6c6.617,0,12,5.383,12,12v154c0,6.617-5.383,12-12,12h-154c-6.617,0-12-5.383-12-12v-154c0-6.617,5.383-12,12-12
		H176.6 M176.6,4.6h-154c-11.046,0-20,8.954-20,20v154c0,11.046,8.954,20,20,20h154c11.046,0,20-8.954,20-20v-154
		C196.6,13.554,187.646,4.6,176.6,4.6L176.6,4.6z"/>
</g>
<g id="Layer_2">
	<g>
		<g>
			<g>
				<path d="M22.295,170.709c-3.645-3.945-5.467-9.608-5.467-16.983v-47.893c0-7.373,1.822-13.036,5.467-16.983
					c3.643-3.947,8.934-5.922,15.877-5.922c6.94,0,12.233,1.975,15.877,5.922c3.645,3.947,5.467,9.61,5.467,16.983v7.809H45.981
					v-8.72c0-5.986-2.473-8.98-7.418-8.98s-7.419,2.994-7.419,8.98v49.845c0,5.901,2.474,8.851,7.419,8.851s7.418-2.949,7.418-8.851
					v-17.828h-7.157v-13.016h20.692v29.803c0,7.375-1.822,13.038-5.467,16.983c-3.644,3.95-8.937,5.922-15.877,5.922
					C31.229,176.631,25.938,174.659,22.295,170.709z"/>
				<path d="M68.755,84.229h14.316v91.101H68.755V84.229z"/>
				<path d="M166.23,84.229h14.316v91.101H166.23V84.229z"/>
			</g>
		</g>
		<polygon points="161.409,83.6 147.236,83.6 140.654,135.357 131.331,83.6 125.083,83.6 118.836,83.6 109.513,135.357 
			102.931,83.6 88.759,83.6 101.645,174.6 107.877,174.6 114.52,174.6 125.083,123.291 135.647,174.6 142.29,174.6 148.522,174.6 		
			"/>
	</g>
	<g>
		<polygon points="17.6,37.6 24.6,37.6 24.6,76.6 32.6,76.6 32.6,37.6 39.6,37.6 39.6,28.6 17.6,28.6 		"/>
		<path d="M54.92,39.096c-1.234,0-2.32,0.245-4.32,1.051V28.6h-8v48h8V52.346c0-2.913,1.701-5.109,3.309-5.109
			c1.92,0,2.691,2.969,2.691,4.738V76.6h8V51.295C64.6,43.885,60.68,39.096,54.92,39.096z"/>
		<path d="M90.6,57.6c0-13.598-3.667-18.441-11.253-18.441c-7.33,0-11.747,4.975-11.747,18.998v0.865
			c0,12.783,6.632,18.504,13.072,18.504c2.922,0,5.113-0.629,7.908-2.32l1.313-0.775l-0.895-7.197c0,0-2.912,1.855-7.642,1.484
			c-3.183-0.25-5.158-3.117-4.719-7.117H90.6V57.6z M76.573,54.6c-0.09-6,1.464-7.221,2.871-7.066
			c0.991,0.109,2.706,2.066,2.55,7.066H76.573z"/>
	</g>
</g>
</svg>
